# xmcd CD database file
#
# Track frame offsets:
#	150
#	14392
#	87675
#	99435
#	119440
#	142180
#	165932
#	181495
#
# Disc length: 2532 seconds
#
# Revision: 2
# Processed by: cddbd v1.4b42PL1 Copyright (c) Steve Scherf et al.
# Submitted via: CDex 1.40Beta7
#
DISCID=6809e208
DTITLE=Lou Rawls - Lou Rawls - Live Disk Two
DYEAR=1978
DGENRE=Blues
TTITLE0=This Song Will Last Forever
TTITLE1=Tribute Medly
TTITLE2=This One's For You
TTITLE3=See You When I Git There
TTITLE4=We Understand Each Other - Early Morning Love
TTITLE5=Send in The Clowns
TTITLE6=You'll Never Find Another Love Like Mine
TTITLE7=A Lovely Way To Spend an Evening
EXTD=YEAR: 1978 ID3G: 0
EXTT0=
EXTT1=
EXTT2=
EXTT3=
EXTT4=
EXTT5=
EXTT6=
EXTT7=
PLAYORDER=
